name Walk3.mot
datacolumns 19
datarows 27
range 1.92800000 1.95400000
endheader

                time	   L_ground_force_vx	   L_ground_force_vy	   L_ground_force_vz	   L_ground_force_px	   L_ground_force_py	   L_ground_force_pz	   R_ground_force_vx	   R_ground_force_vy	   R_ground_force_vz	   R_ground_force_px	   R_ground_force_py	   R_ground_force_pz	   L_ground_torque_x	   L_ground_torque_y	   L_ground_torque_z	   R_ground_torque_x	   R_ground_torque_y	   R_ground_torque_z	
          1.92800000	        -18.44600428	        700.09206125	        -46.74083745	          0.16750106	          0.00000000	          0.08859101	          0.00000000	          0.00000000	          0.00000000	          0.00000000	          0.00000000	          0.00000000	          0.00000000	          8.57221612	          0.00000000	          0.00000000	          0.00000000	          0.00000000	
          1.92900000	        -17.93686683	        697.53842710	        -46.78331162	          0.16792292	          0.00000000	          0.08862514	          0.00000000	          0.00000000	          0.00000000	          0.00000000	          0.00000000	          0.00000000	          0.00000000	          8.54623573	          0.00000000	          0.00000000	          0.00000000	          0.00000000	
          1.93000000	        -17.41316668	        695.00806357	        -46.80489284	          0.16836618	          0.00000000	          0.08862121	          0.00000000	          0.00000000	          0.00000000	          0.00000000	          0.00000000	          0.00000000	          0.00000000	          8.51782764	          0.00000000	          0.00000000	          0.00000000	          0.00000000	
          1.93100000	        -16.89387134	        692.60495678	        -46.80047542	          0.16885987	          0.00000000	          0.08860477	          0.00000000	          0.00000000	          0.00000000	          0.00000000	          0.00000000	          0.00000000	          0.00000000	          8.47732455	          0.00000000	          0.00000000	          0.00000000	          0.00000000	
          1.93200000	        -16.39730069	        690.40828856	        -46.76684270	          0.16938802	          0.00000000	          0.08861822	          0.00000000	          0.00000000	          0.00000000	          0.00000000	          0.00000000	          0.00000000	          0.00000000	          8.42078904	          0.00000000	          0.00000000	          0.00000000	          0.00000000	
          1.93300000	        -15.93191705	        688.41170929	        -46.70692905	          0.16989853	          0.00000000	          0.08869394	          0.00000000	          0.00000000	          0.00000000	          0.00000000	          0.00000000	          0.00000000	          0.00000000	          8.35343530	          0.00000000	          0.00000000	          0.00000000	          0.00000000	
          1.93400000	        -15.48626187	        686.52176138	        -46.63229330	          0.17034290	          0.00000000	          0.08883075	          0.00000000	          0.00000000	          0.00000000	          0.00000000	          0.00000000	          0.00000000	          0.00000000	          8.28591863	          0.00000000	          0.00000000	          0.00000000	          0.00000000	
          1.93500000	        -15.03480192	        684.63240260	        -46.55849764	          0.17072407	          0.00000000	          0.08899492	          0.00000000	          0.00000000	          0.00000000	          0.00000000	          0.00000000	          0.00000000	          0.00000000	          8.22639106	          0.00000000	          0.00000000	          0.00000000	          0.00000000	
          1.93600000	        -14.56027615	        682.69577791	        -46.49633126	          0.17108882	          0.00000000	          0.08913745	          0.00000000	          0.00000000	          0.00000000	          0.00000000	          0.00000000	          0.00000000	          0.00000000	          8.17577169	          0.00000000	          0.00000000	          0.00000000	          0.00000000	
          1.93700000	        -14.06673888	        680.72849408	        -46.44924825	          0.17147906	          0.00000000	          0.08921999	          0.00000000	          0.00000000	          0.00000000	          0.00000000	          0.00000000	          0.00000000	          0.00000000	          8.13115718	          0.00000000	          0.00000000	          0.00000000	          0.00000000	
          1.93800000	        -13.57102484	        678.76825720	        -46.41671419	          0.17190654	          0.00000000	          0.08924033	          0.00000000	          0.00000000	          0.00000000	          0.00000000	          0.00000000	          0.00000000	          0.00000000	          8.09031599	          0.00000000	          0.00000000	          0.00000000	          0.00000000	
          1.93900000	        -13.08821327	        676.82098668	        -46.39570135	          0.17235038	          0.00000000	          0.08922282	          0.00000000	          0.00000000	          0.00000000	          0.00000000	          0.00000000	          0.00000000	          0.00000000	          8.05161882	          0.00000000	          0.00000000	          0.00000000	          0.00000000	
          1.94000000	        -12.62722883	        674.88008055	        -46.37800961	          0.17277745	          0.00000000	          0.08919578	          0.00000000	          0.00000000	          0.00000000	          0.00000000	          0.00000000	          0.00000000	          0.00000000	          8.01207516	          0.00000000	          0.00000000	          0.00000000	          0.00000000	
          1.94100000	        -12.19293645	        672.99242997	        -46.35058198	          0.17317408	          0.00000000	          0.08919258	          0.00000000	          0.00000000	          0.00000000	          0.00000000	          0.00000000	          0.00000000	          0.00000000	          7.96848505	          0.00000000	          0.00000000	          0.00000000	          0.00000000	
          1.94200000	        -11.78337349	        671.24364765	        -46.30206136	          0.17354440	          0.00000000	          0.08924375	          0.00000000	          0.00000000	          0.00000000	          0.00000000	          0.00000000	          0.00000000	          0.00000000	          7.92111598	          0.00000000	          0.00000000	          0.00000000	          0.00000000	
          1.94300000	        -11.38561875	        669.67645524	        -46.23000042	          0.17389322	          0.00000000	          0.08935447	          0.00000000	          0.00000000	          0.00000000	          0.00000000	          0.00000000	          0.00000000	          0.00000000	          7.87306543	          0.00000000	          0.00000000	          0.00000000	          0.00000000	
          1.94400000	        -10.98106379	        668.24064783	        -46.14872079	          0.17422551	          0.00000000	          0.08949875	          0.00000000	          0.00000000	          0.00000000	          0.00000000	          0.00000000	          0.00000000	          0.00000000	          7.82674363	          0.00000000	          0.00000000	          0.00000000	          0.00000000	
          1.94500000	        -10.55733019	        666.83426276	        -46.08659053	          0.17455323	          0.00000000	          0.08963117	          0.00000000	          0.00000000	          0.00000000	          0.00000000	          0.00000000	          0.00000000	          0.00000000	          7.78246015	          0.00000000	          0.00000000	          0.00000000	          0.00000000	
          1.94600000	        -10.11535210	        665.40631778	        -46.05992230	          0.17489876	          0.00000000	          0.08970935	          0.00000000	          0.00000000	          0.00000000	          0.00000000	          0.00000000	          0.00000000	          0.00000000	          7.73671181	          0.00000000	          0.00000000	          0.00000000	          0.00000000	
          1.94700000	         -9.66632695	        663.98624682	        -46.05324132	          0.17528442	          0.00000000	          0.08971466	          0.00000000	          0.00000000	          0.00000000	          0.00000000	          0.00000000	          0.00000000	          0.00000000	          7.68250420	          0.00000000	          0.00000000	          0.00000000	          0.00000000	
          1.94800000	         -9.22320904	        662.61680020	        -46.03677965	          0.17570865	          0.00000000	          0.08966410	          0.00000000	          0.00000000	          0.00000000	          0.00000000	          0.00000000	          0.00000000	          0.00000000	          7.61691099	          0.00000000	          0.00000000	          0.00000000	          0.00000000	
          1.94900000	         -8.79557622	        661.31662661	        -45.99953057	          0.17614692	          0.00000000	          0.08960893	          0.00000000	          0.00000000	          0.00000000	          0.00000000	          0.00000000	          0.00000000	          0.00000000	          7.54779221	          0.00000000	          0.00000000	          0.00000000	          0.00000000	
          1.95000000	         -8.38695184	        660.09531164	        -45.95860709	          0.17658823	          0.00000000	          0.08960114	          0.00000000	          0.00000000	          0.00000000	          0.00000000	          0.00000000	          0.00000000	          0.00000000	          7.48832133	          0.00000000	          0.00000000	          0.00000000	          0.00000000	
          1.95100000	         -7.98992965	        658.94566792	        -45.93733631	          0.17704318	          0.00000000	          0.08965645	          0.00000000	          0.00000000	          0.00000000	          0.00000000	          0.00000000	          0.00000000	          0.00000000	          7.44497693	          0.00000000	          0.00000000	          0.00000000	          0.00000000	
          1.95200000	         -7.58850816	        657.82185077	        -45.93888347	          0.17751327	          0.00000000	          0.08975262	          0.00000000	          0.00000000	          0.00000000	          0.00000000	          0.00000000	          0.00000000	          0.00000000	          7.41073174	          0.00000000	          0.00000000	          0.00000000	          0.00000000	
          1.95300000	         -7.17056289	        656.67272927	        -45.94241142	          0.17798843	          0.00000000	          0.08985186	          0.00000000	          0.00000000	          0.00000000	          0.00000000	          0.00000000	          0.00000000	          0.00000000	          7.36803535	          0.00000000	          0.00000000	          0.00000000	          0.00000000	
          1.95400000	         -6.73618214	        655.50428679	        -45.92384129	          0.17845792	          0.00000000	          0.08992696	          0.00000000	          0.00000000	          0.00000000	          0.00000000	          0.00000000	          0.00000000	          0.00000000	          7.30323595	          0.00000000	          0.00000000	          0.00000000	          0.00000000	
